<svg xmlns="http://www.w3.org/2000/svg" width="128" height="128" viewBox="0 0 128 128">
  <path fill="#FFFFFF" d="M87.2 67.2c-.2-10.7 8.7-15.9 9.1-16.2-5-7.3-12.8-8.3-15.6-8.4-6.6-.7-12.9 3.9-16.2 3.9-3.3 0-8.4-3.8-13.8-3.7-7.1.1-13.7 4.1-17.4 10.5-7.4 12.8-1.9 31.8 5.3 42.2 3.5 5.1 7.7 10.9 13.2 10.7 5.3-.2 7.3-3.4 13.7-3.4 6.4 0 8.2 3.4 13.8 3.3 5.7-.1 9.3-5.2 12.8-10.3 4-5.9 5.7-11.6 5.8-11.9-.1-.1-11.1-4.3-11.3-17.7z"/>
  <path fill="#FFFFFF" d="M77.2 36.1c2.9-3.5 4.9-8.3 4.3-13.1-4.2.2-9.4 2.8-12.4 6.3-2.7 3.1-5.1 8.1-4.4 12.9 4.7.4 9.6-2.4 12.5-6.1z"/>
</svg>

